<svg t="1593448758382" class="icon" viewBox="0 0 1024 1024" version="1.1" 
    xmlns="http://www.w3.org/2000/svg" p-id="1500" width="200" height="200">
    <path d="M913.408 122.88 108.544 122.88l0 0C90.112 122.88 73.728 137.216 73.728 155.648L73.728 860.16l0 0c0 18.432 14.336 34.816 34.816 34.816l804.864 0 0 0c18.432 0 32.768-14.336 32.768-34.816L946.176 157.696l0 0C946.176 137.216 931.84 122.88 913.408 122.88zM880.64 827.392 141.312 827.392 141.312 368.64 880.64 368.64 880.64 827.392zM880.64 329.728 141.312 329.728 141.312 190.464 880.64 190.464 880.64 329.728z" p-id="1501" fill="#e6e6e6"></path>
    <path d="M305.152 546.816 305.152 546.816c8.192 4.096 10.24 14.336 6.144 22.528-4.096 8.192-14.336 10.24-22.528 6.144l-118.784-67.584C163.84 503.808 159.744 493.568 163.84 485.376c2.048-2.048 4.096-4.096 6.144-6.144l118.784-65.536c8.192-4.096 18.432-2.048 22.528 6.144 4.096 8.192 2.048 18.432-6.144 22.528l-94.208 53.248L305.152 546.816 305.152 546.816z" p-id="1502" fill="#e6e6e6"></path>
    <path d="M436.224 389.12 436.224 389.12c4.096-8.192 14.336-12.288 22.528-8.192 8.192 4.096 12.288 14.336 8.192 22.528l-92.16 194.56c-4.096 8.192-14.336 12.288-22.528 8.192-8.192-4.096-12.288-14.336-8.192-22.528L436.224 389.12 436.224 389.12z" p-id="1503" fill="#e6e6e6"></path>
    <path d="M827.392 225.28 827.392 225.28c18.432 0 32.768 14.336 32.768 32.768 0 18.432-14.336 32.768-32.768 32.768-18.432 0-32.768-14.336-32.768-32.768C794.624 241.664 808.96 225.28 827.392 225.28L827.392 225.28z" p-id="1504" fill="#e6e6e6"></path>
    <path d="M745.472 225.28 745.472 225.28c18.432 0 32.768 14.336 32.768 32.768 0 18.432-14.336 32.768-32.768 32.768-18.432 0-32.768-14.336-32.768-32.768C710.656 241.664 727.04 225.28 745.472 225.28L745.472 225.28z" p-id="1505" fill="#e6e6e6"></path>
    <path d="M663.552 225.28 663.552 225.28c18.432 0 32.768 14.336 32.768 32.768 0 18.432-14.336 32.768-32.768 32.768-18.432 0-32.768-14.336-32.768-32.768C628.736 241.664 645.12 225.28 663.552 225.28L663.552 225.28z" p-id="1506" fill="#e6e6e6"></path>
    <path d="M770.048 837.632c0-8.192 6.144-14.336 14.336-14.336 8.192 0 14.336 6.144 14.336 14.336l0 36.864c0 8.192-6.144 14.336-14.336 14.336l-2.048 0-61.44 0c-8.192 0-14.336-6.144-14.336-14.336l0 0 0-24.576c-4.096-2.048-8.192-2.048-12.288-4.096l0 0 0 0c-4.096-2.048-8.192-4.096-12.288-6.144l-18.432 18.432c-6.144 6.144-14.336 6.144-20.48 0l0 0 0 0-45.056-45.056c-6.144-6.144-6.144-14.336 0-20.48l18.432-18.432c-2.048-4.096-4.096-8.192-6.144-12.288-2.048-4.096-4.096-8.192-4.096-12.288l-24.576 0c-8.192 0-14.336-6.144-14.336-14.336l0-2.048 0-61.44c0-8.192 6.144-14.336 14.336-14.336l0 0 24.576 0c2.048-4.096 2.048-8.192 4.096-12.288 2.048-4.096 4.096-8.192 6.144-12.288L598.016 614.4c-6.144-6.144-6.144-14.336 0-20.48l0 0 0 0 45.056-45.056c6.144-6.144 14.336-6.144 20.48 0l18.432 18.432c4.096-2.048 8.192-4.096 12.288-6.144l0 0c4.096-2.048 8.192-2.048 12.288-4.096L706.56 532.48c0-8.192 6.144-14.336 14.336-14.336l0 0 63.488 0c8.192 0 14.336 6.144 14.336 14.336l0 0 0 24.576c4.096 2.048 8.192 2.048 12.288 4.096 4.096 2.048 8.192 4.096 12.288 6.144l18.432-18.432c6.144-6.144 14.336-6.144 20.48 0l0 0 0 0 45.056 45.056c6.144 6.144 6.144 14.336 0 20.48l-18.432 18.432c2.048 4.096 4.096 8.192 6.144 12.288 2.048 4.096 4.096 8.192 4.096 12.288L921.6 657.408c8.192 0 14.336 6.144 14.336 14.336l0 2.048 0 61.44c0 8.192-6.144 14.336-14.336 14.336l-34.816 0c-8.192 0-14.336-6.144-14.336-14.336 0-8.192 6.144-14.336 14.336-14.336l22.528 0 0-34.816-22.528 0c-6.144 0-12.288-4.096-14.336-10.24-2.048-6.144-4.096-12.288-6.144-18.432-2.048-6.144-6.144-12.288-8.192-16.384-4.096-6.144-2.048-12.288 2.048-18.432l14.336-14.336-24.576-24.576-14.336 14.336c-4.096 4.096-12.288 6.144-18.432 2.048-6.144-4.096-12.288-6.144-18.432-8.192-6.144-2.048-12.288-4.096-18.432-6.144-6.144-2.048-12.288-6.144-12.288-14.336l0-22.528-34.816 0 0 22.528c0 6.144-4.096 12.288-10.24 14.336-6.144 2.048-12.288 4.096-18.432 6.144l0 0c-6.144 2.048-12.288 6.144-18.432 8.192-6.144 4.096-12.288 2.048-18.432-2.048l-14.336-14.336-24.576 24.576 14.336 14.336c6.144 4.096 6.144 12.288 2.048 18.432-4.096 6.144-6.144 12.288-8.192 18.432-2.048 6.144-4.096 12.288-6.144 18.432-2.048 6.144-6.144 12.288-14.336 12.288l-22.528 0 0 34.816 22.528 0c6.144 0 12.288 4.096 14.336 10.24 2.048 6.144 4.096 12.288 6.144 18.432 2.048 6.144 6.144 12.288 8.192 18.432 4.096 6.144 2.048 12.288-2.048 18.432l-16.384 16.384 24.576 24.576 14.336-14.336c4.096-6.144 12.288-6.144 18.432-2.048 6.144 4.096 12.288 6.144 18.432 8.192l0 0c6.144 2.048 12.288 4.096 18.432 6.144 6.144 2.048 12.288 6.144 12.288 14.336L733.184 860.16l34.816 0L768 837.632 770.048 837.632zM751.616 608.256 751.616 608.256c38.912 0 73.728 24.576 88.064 59.392 4.096 12.288 8.192 24.576 8.192 36.864 0 12.288-2.048 24.576-8.192 36.864l0 0c-2.048 6.144-6.144 14.336-10.24 20.48l61.44 61.44c6.144 6.144 6.144 14.336 0 20.48-6.144 6.144-14.336 6.144-20.48 0l-61.44-61.44c-6.144 4.096-12.288 8.192-20.48 12.288-12.288 4.096-24.576 8.192-36.864 8.192-12.288 0-24.576-2.048-36.864-8.192l0 0c-12.288-4.096-22.528-12.288-30.72-20.48-18.432-18.432-28.672-43.008-28.672-67.584 0-12.288 2.048-24.576 8.192-36.864l0 0c4.096-12.288 12.288-22.528 20.48-30.72C702.464 616.448 727.04 608.256 751.616 608.256L751.616 608.256zM751.616 634.88 751.616 634.88c-18.432 0-34.816 6.144-47.104 20.48-6.144 6.144-10.24 12.288-14.336 20.48l0 0c-4.096 8.192-4.096 16.384-4.096 26.624 0 26.624 16.384 51.2 40.96 61.44l0 0c8.192 4.096 16.384 6.144 26.624 6.144 10.24 0 18.432-2.048 26.624-6.144l0 0c24.576-10.24 40.96-34.816 40.96-61.44 0-8.192-2.048-18.432-4.096-26.624l0 0C802.816 651.264 778.24 634.88 751.616 634.88L751.616 634.88z" p-id="1507" fill="#e6e6e6"></path>
</svg>